<?xml version="1.0" encoding="UTF-8"?>
<svg id="Layer_1" data-name="Layer 1" xmlns="http://www.w3.org/2000/svg" viewBox="0 0 2880 2880">
  <defs>
    <style>
      .cls-1 {
        fill: #fff;
      }

      .cls-2 {
        fill: #e39825;
      }
    </style>
  </defs>
  <rect class="cls-2" x="-158.23" y="-37.15" width="3196.46" height="3143.94"/>
  <g>
    <path class="cls-1" d="M2438.78,1140.66c15.49,15.86-4.48,88.19-9.37,112.4-35.24,174.51-86.04,372.37-134.06,544.35-45.31,162.26-107.29,348.52-278.62,415.03-273.76,106.29-321.83-138.18-128.37-296.06,66.58-54.34,138.85-77.53,220.64-99.51l49.67-213.2-68.78,94.99c-108.74,117.99-306.46,114.88-297.07-79.75l-137.8,125.1c-313.33,157.89-455.88-68.72-338.44-361.31,53.28-132.75,212.45-299.38,369.56-232.62,201.62,85.68-69.8,471.45-243.96,423.01-13.85,193.08,146.41,155.16,250.8,64.05,146.7-128.04,115.9-291.74,187.51-452.78,30.4-68.37,173.54-62.1,179-3.07,3.44,37.23-53.14,201.36-64.72,254.55-9.98,45.81-45.56,189.18-25.21,223.58,12.9,21.81,26.69,12.16,43.95.91,73.6-48,164.08-230.45,196.83-313.84,14.85-37.82,53.06-183.94,66.84-199.95,26.63-30.97,135.15-32.99,161.62-5.9ZM1623.33,1246.51c-74.08,7.79-152.19,169.79-162.84,234.62-4.17,25.37,46.41,7.31,62.07.83,35.89-14.85,98.83-77.57,116.48-112.2,16.36-32.1,47.07-129.86-15.7-123.26ZM2090.13,1900.98c-97.83-4.42-253.4,114.88-244.58,217.26,4.85,56.33,68.19,43.89,103.62,19.03,74.18-52.06,113.94-153.6,140.96-236.29Z"/>
    <path class="cls-1" d="M948.55,1868.41c-22.07-22.03,87.61-403.43,78.12-463.08l-254.54,23.71-92.97,429.16c-24.62,36.5-159.09,48.38-173.27,7.21-8.22-23.85,4.4-76.25,8.59-103.29,47.19-304.56,135.52-604.23,180.32-909.71,8.09-64.33,183.16-66.64,191.11-14.41l-91.57,491.19c36.16-14.67,246-5.48,259.35-28.15l95.61-481.97c22.42-42.1,172.88-43.75,190.15-8.16l3.22,25.42-209.16,1003.61c-12.93,59.72-156.22,57.14-184.97,28.46Z"/>
    <path class="cls-1" d="M794.35,1329.19l-329.46,36.23c-6.66.73-12.17,5.49-13.88,11.96l-15.03,57.12c-2.84,10.78,5.83,21.14,16.94,20.24l319.21-25.7,22.22-99.85Z"/>
  </g>
</svg>