<?xml version="1.0" encoding="UTF-8"?>
<svg id="Layer_2" data-name="Layer 2" xmlns="http://www.w3.org/2000/svg" viewBox="0 0 465.77 109.36">
  <defs>
    <style>
      .cls-1 {
        fill: #f1f2f2;
      }
    </style>
  </defs>
  <g id="Layer_1" data-name="Layer 1">
    <g>
      <g>
        <path class="cls-1" d="M154.1,68.36c0-.91.25-2.64,1.49-12.96l3.63-29.06c.41-3.63.66-8.83-.25-9.17-3.47-.17-5.2-.99-5.2-2.31,0-1.07.99-1.65,1.98-2.15,3.05-1.49,8.83-2.72,10.82-2.72s3.14,1.16,3.14,3.05c0,.91-.25,2.48-1.49,12.71l-3.63,29.23c-.41,3.55-.91,8.67.08,9.33,3.39.17,4.79.74,4.79,2.06,0,1.16-.91,1.82-1.9,2.31-2.72,1.49-8.42,2.64-10.65,2.64-1.82,0-2.81-1.16-2.81-2.97Z"/>
        <path class="cls-1" d="M203.72,68.36c0-.99.5-3.88,1.4-11.56l1.16-9.08c.17-1.57.33-3.39.33-4.79,0-4.38-1.57-7.76-6.03-7.76-4.95,0-11.15,4.71-12.38,15.28l-2.06,17.26c-.33,2.39-2.06,3.38-5.28,3.38-2.56,0-3.72-.99-3.72-3.05,0-.74.33-2.48.66-5.45l2.15-17.09c.41-3.63.74-9-.33-9.41-3.22-.08-4.79-.66-4.79-1.98,0-.99.91-1.65,1.98-2.23,2.89-1.57,8.59-2.64,10.57-2.64,1.73,0,2.81,1.32,2.81,2.89,0,.66-.17,2.06-.74,6.61,3.38-6.36,9.25-9.99,15.6-9.99,6.69,0,10.82,4.13,10.82,11.97,0,1.57-.17,2.97-.25,3.88l-1.32,10.32c-.41,3.88-.91,8.83.25,9.5,3.3.17,4.71.66,4.71,1.98,0,1.16-.99,1.82-1.98,2.31-2.72,1.4-8.26,2.64-10.57,2.64-1.82,0-2.97-1.16-2.97-2.97Z"/>
        <path class="cls-1" d="M227.33,62.82c0-.99.17-2.48.33-3.8l2.81-23.61h-2.56c-2.06,0-3.8-.25-3.8-1.9,0-2.81,2.23-3.14,4.38-3.14h2.64l.5-4.29c.33-2.31,1.98-3.3,5.28-3.3,2.56,0,3.72.91,3.72,2.97,0,.66-.25,2.64-.5,4.05l-.08.58h10.73c1.98,0,3.8.08,3.8,1.9,0,2.72-2.23,3.14-4.46,3.14h-10.65l-2.56,20.31c-.17,1.32-.33,2.97-.33,3.96,0,2.97,1.07,4.87,4.46,4.87,4.46,0,7.43-3.55,9.08-3.55,1.07,0,1.65.66,1.65,1.57,0,2.89-6.69,8.75-14.78,8.75-5.86,0-9.66-3.05-9.66-8.5Z"/>
        <path class="cls-1" d="M253.83,54.07c0-13.29,10.16-25.51,23.2-25.51,7.93,0,12.47,4.38,12.47,9.58,0,6.85-7.51,12.63-23.2,14.61l-3.88.58c.91,6.69,5.2,10.82,11.81,10.82,5.61,0,9.25-3.3,11.64-5.45.99-.91,1.65-1.4,2.48-1.4s1.4.66,1.4,1.73c0,1.49-1.24,3.72-3.3,5.86-3.05,3.39-8.59,7.02-15.77,7.02-10.32,0-16.84-7.18-16.84-17.83ZM264.65,49.12c11.81-1.82,17.17-6.19,17.17-10.98,0-2.89-2.31-4.95-6.03-4.95-6.77,0-13.05,7.27-13.54,16.35l2.39-.41Z"/>
        <path class="cls-1" d="M296.27,68.03c0-.74.33-2.48.66-5.45l2.15-17.09c.41-3.55.74-9-.33-9.41-3.22-.08-4.79-.66-4.79-1.98,0-.99.91-1.65,1.98-2.23,2.89-1.49,8.34-2.64,10.32-2.64,1.57,0,2.56,1.32,2.56,2.89,0,.66-.08,2.06-.58,6.69,3.05-6.6,8.09-10.07,12.05-10.07s6.11,2.81,6.11,6.03c0,3.38-2.06,5.45-4.46,5.45-1.82,0-2.97-.99-3.8-2.06-.58-.66-1.32-1.24-2.23-1.24-2.48,0-7.51,4.62-8.59,13.87v-.08l-2.06,17.01c-.33,2.39-2.06,3.38-5.28,3.38-2.56,0-3.72-.99-3.72-3.05Z"/>
        <path class="cls-1" d="M324.92,54.07c0-13.29,10.16-25.51,23.2-25.51,7.93,0,12.47,4.38,12.47,9.58,0,6.85-7.51,12.63-23.2,14.61l-3.88.58c.91,6.69,5.2,10.82,11.81,10.82,5.61,0,9.25-3.3,11.64-5.45.99-.91,1.65-1.4,2.48-1.4s1.4.66,1.4,1.73c0,1.49-1.24,3.72-3.3,5.86-3.05,3.39-8.59,7.02-15.77,7.02-10.32,0-16.84-7.18-16.84-17.83ZM335.74,49.12c11.81-1.82,17.17-6.19,17.17-10.98,0-2.89-2.31-4.95-6.03-4.95-6.77,0-13.05,7.27-13.54,16.35l2.39-.41Z"/>
        <path class="cls-1" d="M362.57,62.33c0-2.39,1.49-3.96,3.55-3.96,2.48,0,3.55,2.31,4.46,3.72,2.56,3.88,5.53,5.2,9.08,5.2,4.46,0,7.68-2.48,7.68-6.19,0-4.54-3.96-5.45-10.32-8.42-6.03-2.81-10.4-6.11-10.4-12.14,0-6.94,6.27-12.05,15.85-12.05,8.34,0,15.27,4.13,15.27,8.83,0,2.15-1.24,3.71-3.39,3.71-2.56,0-3.14-2.23-5.12-4.54-1.9-2.31-4.21-3.38-7.02-3.38-3.88,0-6.94,2.31-6.94,5.7s1.98,4.62,9.08,7.84c5.86,2.72,11.89,5.53,11.89,12.88s-6.94,12.38-17.01,12.38-16.68-4.71-16.68-9.58Z"/>
        <path class="cls-1" d="M405,62.82c0-.99.17-2.48.33-3.8l2.81-23.61h-2.56c-2.06,0-3.8-.25-3.8-1.9,0-2.81,2.23-3.14,4.38-3.14h2.64l.5-4.29c.33-2.31,1.98-3.3,5.28-3.3,2.56,0,3.72.91,3.72,2.97,0,.66-.25,2.64-.5,4.05l-.08.58h10.73c1.98,0,3.8.08,3.8,1.9,0,2.72-2.23,3.14-4.46,3.14h-10.65l-2.56,20.31c-.17,1.32-.33,2.97-.33,3.96,0,2.97,1.07,4.87,4.46,4.87,4.46,0,7.43-3.55,9.08-3.55,1.07,0,1.65.66,1.65,1.57,0,2.89-6.69,8.75-14.78,8.75-5.86,0-9.66-3.05-9.66-8.5Z"/>
        <path class="cls-1" d="M430.6,62.33c0-2.39,1.49-3.96,3.55-3.96,2.48,0,3.55,2.31,4.46,3.72,2.56,3.88,5.53,5.2,9.08,5.2,4.46,0,7.68-2.48,7.68-6.19,0-4.54-3.96-5.45-10.32-8.42-6.03-2.81-10.4-6.11-10.4-12.14,0-6.94,6.27-12.05,15.85-12.05,8.34,0,15.27,4.13,15.27,8.83,0,2.15-1.24,3.71-3.39,3.71-2.56,0-3.14-2.23-5.12-4.54-1.9-2.31-4.21-3.38-7.02-3.38-3.88,0-6.94,2.31-6.94,5.7s1.98,4.62,9.08,7.84c5.86,2.72,11.89,5.53,11.89,12.88s-6.94,12.38-17.01,12.38-16.68-4.71-16.68-9.58Z"/>
      </g>
      <g>
        <path class="cls-1" d="M150.82,26.72c1.17,1.19-.34,6.64-.71,8.46-2.65,13.14-6.48,28.03-10.09,40.98-3.41,12.22-8.08,26.24-20.98,31.25-20.61,8-24.23-10.4-9.66-22.29,5.01-4.09,10.45-5.84,16.61-7.49l3.74-16.05-5.18,7.15c-8.19,8.88-23.07,8.65-22.36-6l-10.37,9.42c-23.59,11.89-34.32-5.17-25.48-27.2,4.01-9.99,15.99-22.54,27.82-17.51,15.18,6.45-5.25,35.49-18.37,31.85-1.04,14.54,11.02,11.68,18.88,4.82,11.04-9.64,8.73-21.96,14.12-34.09,2.29-5.15,13.07-4.68,13.48-.23.26,2.8-4,15.16-4.87,19.16-.75,3.45-3.43,14.24-1.9,16.83.97,1.64,2.01.92,3.31.07,5.54-3.61,12.35-17.35,14.82-23.63,1.12-2.85,3.99-13.85,5.03-15.05,2.01-2.33,10.17-2.48,12.17-.44ZM89.43,34.69c-5.58.59-11.46,12.78-12.26,17.66-.31,1.91,3.49.55,4.67.06,2.7-1.12,7.44-5.84,8.77-8.45,1.23-2.42,3.54-9.78-1.18-9.28ZM124.57,83.96c-7.36-.33-19.08,8.65-18.41,16.36.37,4.24,5.13,3.3,7.8,1.43,5.58-3.92,8.58-11.56,10.61-17.79Z"/>
        <path class="cls-1" d="M38.63,81.51c-1.66-1.66,6.6-30.37,5.88-34.86l-19.16,1.79-7,32.31c-1.85,2.75-11.98,3.64-13.04.54-.62-1.8.33-5.74.65-7.78,3.55-22.93,10.2-45.49,13.58-68.49C20.14.18,33.32,0,33.91,3.93l-6.89,36.98c2.72-1.1,18.52-.41,19.53-2.12L53.74,2.51c1.69-3.17,13.02-3.29,14.32-.61l.24,1.91-15.75,75.56c-.97,4.5-11.76,4.3-13.92,2.14Z"/>
        <path class="cls-1" d="M27.02,40.91l-24.8,2.73c-.5.06-.92.41-1.04.9L.04,48.84c-.21.81.44,1.59,1.28,1.52l24.03-1.93,1.67-7.52Z"/>
      </g>
    </g>
  </g>
</svg>